<svg width="20" height="20" viewBox="0 0 20 20" fill="none" xmlns="http://www.w3.org/2000/svg">
<g clip-path="url(#clip0_34_5454)">
<path d="M14.167 2.50016H17.5003C17.7213 2.50016 17.9333 2.58796 18.0896 2.74424C18.2459 2.90052 18.3337 3.11248 18.3337 3.3335V16.6668C18.3337 16.8878 18.2459 17.0998 18.0896 17.2561C17.9333 17.4124 17.7213 17.5002 17.5003 17.5002H2.50033C2.27931 17.5002 2.06735 17.4124 1.91107 17.2561C1.75479 17.0998 1.66699 16.8878 1.66699 16.6668V3.3335C1.66699 3.11248 1.75479 2.90052 1.91107 2.74424C2.06735 2.58796 2.27931 2.50016 2.50033 2.50016H5.83366V0.833496H7.50033V2.50016H12.5003V0.833496H14.167V2.50016ZM12.5003 4.16683H7.50033V5.8335H5.83366V4.16683H3.33366V7.50016H16.667V4.16683H14.167V5.8335H12.5003V4.16683ZM16.667 9.16683H3.33366V15.8335H16.667V9.16683Z" fill="black" fill-opacity="0.72"/>
</g>
<defs>
<clipPath id="clip0_34_5454">
<rect width="20" height="20" fill="white"/>
</clipPath>
</defs>
</svg>
