<svg width="16" height="16" viewBox="0 0 16 16" fill="none" xmlns="http://www.w3.org/2000/svg">
<g clip-path="url(#clip0_34_5433)">
<path d="M11.3335 2.00014H14.0002C14.177 2.00014 14.3465 2.07038 14.4716 2.1954C14.5966 2.32043 14.6668 2.49 14.6668 2.66681V13.3335C14.6668 13.5103 14.5966 13.6799 14.4716 13.8049C14.3465 13.9299 14.177 14.0001 14.0002 14.0001H2.00016C1.82335 14.0001 1.65378 13.9299 1.52876 13.8049C1.40373 13.6799 1.3335 13.5103 1.3335 13.3335V2.66681C1.3335 2.49 1.40373 2.32043 1.52876 2.1954C1.65378 2.07038 1.82335 2.00014 2.00016 2.00014H4.66683V0.666809H6.00016V2.00014H10.0002V0.666809H11.3335V2.00014ZM13.3335 7.33348H2.66683V12.6668H13.3335V7.33348ZM10.0002 3.33348H6.00016V4.66681H4.66683V3.33348H2.66683V6.00014H13.3335V3.33348H11.3335V4.66681H10.0002V3.33348ZM4.00016 8.66681H5.3335V10.0001H4.00016V8.66681ZM7.3335 8.66681H8.66683V10.0001H7.3335V8.66681ZM10.6668 8.66681H12.0002V10.0001H10.6668V8.66681Z" fill="black"/>
</g>
<defs>
<clipPath id="clip0_34_5433">
<rect width="16" height="16" fill="white"/>
</clipPath>
</defs>
</svg>
